<svg width="45" height="45" viewBox="0 0 45 45" fill="none" xmlns="http://www.w3.org/2000/svg">
<g clip-path="url(#clip0)">
<path d="M40.6289 7.14446H30.2134V5.16467C30.2134 2.31687 27.8966 0 25.0488 0H19.0233C16.1755 0 13.8587 2.31687 13.8587 5.16467V7.14446H3.44324C2.49242 7.14446 1.72168 7.9152 1.72168 8.86602C1.72168 9.81683 2.49242 10.5876 3.44324 10.5876H5.22608L7.32414 37.787C7.32474 37.795 7.32543 37.803 7.32612 37.811C7.48244 39.526 8.26902 41.11 9.5409 42.2712C10.8128 43.4324 12.4617 44.0718 14.1839 44.0718H29.8882C33.4748 44.0718 36.423 41.4007 36.746 37.8585C36.8323 36.9115 36.1347 36.074 35.1879 35.9877C34.2401 35.9013 33.4034 36.5989 33.3171 37.5458C33.1569 39.3034 31.6828 40.6287 29.8882 40.6287H14.1839C12.3954 40.6287 10.9237 39.2884 10.756 37.5091L8.67944 10.5876H35.3927L33.9223 29.6505C33.8492 30.5985 34.5584 31.4262 35.5064 31.4994C35.5515 31.5028 35.5961 31.5046 35.6406 31.5046C36.5313 31.5046 37.2856 30.8182 37.3552 29.9153L38.846 10.5876H40.6289C41.5797 10.5876 42.3504 9.81683 42.3504 8.86602C42.3504 7.9152 41.5797 7.14446 40.6289 7.14446ZM26.7703 7.14446H17.3018V5.16467C17.3018 4.2154 18.0741 3.44311 19.0233 3.44311H25.0488C25.998 3.44311 26.7703 4.2154 26.7703 5.16467V7.14446Z" fill="#DBDADA"/>
<path d="M14.2148 14.0323C13.2649 14.0738 12.5285 14.8774 12.57 15.8274L13.4308 35.5334C13.4712 36.4577 14.2332 37.1799 15.1494 37.1799C15.1747 37.1799 15.2003 37.1794 15.2259 37.1782C16.1757 37.1367 16.9121 36.3331 16.8706 35.3831L16.0099 15.677C15.9684 14.7272 15.1632 13.9896 14.2148 14.0323Z" fill="#DBDADA"/>
<path d="M28.0646 15.6771L27.2038 35.3832C27.1623 36.3331 27.8987 37.1368 28.8486 37.1783C28.8742 37.1794 28.8996 37.18 28.925 37.18C29.8412 37.18 30.6033 36.4578 30.6437 35.5335L31.5044 15.8275C31.5459 14.8776 30.8095 14.0739 29.8597 14.0324C28.9113 13.99 28.1061 14.7272 28.0646 15.6771Z" fill="#DBDADA"/>
<path d="M20.3154 15.7522V35.4583C20.3154 36.4091 21.0862 37.1798 22.037 37.1798C22.9878 37.1798 23.7585 36.4091 23.7585 35.4583V15.7522C23.7585 14.8014 22.9878 14.0307 22.037 14.0307C21.0862 14.0307 20.3154 14.8014 20.3154 15.7522Z" fill="#DBDADA"/>
</g>
<defs>
<clipPath id="clip0">
<rect width="44.0718" height="44.0718" fill="white"/>
</clipPath>
</defs>
</svg>
