<svg width="15" height="24" viewBox="0 0 15 24" fill="none" xmlns="http://www.w3.org/2000/svg">
<path d="M3.97175 23.9685C4.20616 24.0931 4.45343 23.8232 4.30991 23.5998C3.53094 22.3873 2.79329 20.347 3.96854 17.7194C5.92842 13.3375 7.121 11.068 7.121 11.068C7.121 11.068 7.75533 13.7165 9.47484 16.0714C11.1298 18.3377 12.0356 21.1881 10.5753 23.5627C10.4382 23.7856 10.6799 24.0485 10.9128 23.9293C12.7204 23.0045 14.7479 21.1495 14.9767 17.4581C15.061 16.3301 14.9345 14.7508 14.302 12.758C13.4887 10.2323 12.4889 9.05375 11.9104 8.54763C11.7373 8.39622 11.4682 8.53042 11.4824 8.75991C11.651 11.4852 10.6259 12.1767 10.0423 10.6182C9.80931 9.99567 9.6734 8.91896 9.6734 7.60775C9.6734 5.42481 9.04014 3.17767 7.644 1.35163C7.28094 0.87677 6.85612 0.433045 6.36872 0.0546527C6.19227 -0.0823669 5.93649 0.0553585 5.95265 0.278182C6.05985 1.75802 5.96273 5.99916 2.24228 11.066C-1.13106 15.766 0.176103 19.3756 0.639938 20.3533C1.52675 22.2262 2.76372 23.3261 3.97175 23.9685Z" fill="#434343"/>
</svg>
