<svg width="49" height="49" viewBox="0 0 49 49" fill="color: #8C8C8C" xmlns="http://www.w3.org/2000/svg">
<path d="M35.3034 2.4471L38.1966 4.11756L34.3646 10.7553L31.4714 9.08482L35.3034 2.4471ZM46.5529 13.6966L44.8824 10.8034L38.2447 14.6354L39.9152 17.5286L46.5529 13.6966ZM41.336 26.1705H49V22.8295H41.336V26.1705ZM38.2447 34.3646L44.8824 38.1966L46.5529 35.3034L39.9152 31.4714L38.2447 34.3646ZM31.4714 39.9152L35.3034 46.5529L38.1966 44.8824L34.3646 38.2447L31.4714 39.9152ZM22.8295 49H26.1705V41.336H22.8295V49ZM10.8034 44.8824L13.6966 46.5529L17.5286 39.9152L14.6354 38.2447L10.8034 44.8824ZM2.4471 35.3034L4.11756 38.1966L10.7553 34.3646L9.08482 31.4714L2.4471 35.3034ZM0 26.1705H7.66405V22.8295H0V26.1705ZM10.7551 14.6354L4.11756 10.8034L2.4471 13.6966L9.0846 17.5286L10.7551 14.6354ZM10.8034 4.11756L14.6354 10.7551L17.5286 9.0846L13.6966 2.4471L10.8034 4.11756ZM22.8295 7.66382H26.1705V0H22.8295V7.66382Z" fill="#9A9A9A"/>
</svg>
