<svg width="26" height="26" viewBox="0 0 26 26" fill="none" xmlns="http://www.w3.org/2000/svg">
<path d="M10.1977 22.5083C10.3839 22.6073 10.5804 22.3929 10.4663 22.2155C9.84742 21.2522 9.26133 19.6313 10.1951 17.5437C11.7523 14.0626 12.6998 12.2596 12.6998 12.2596C12.6998 12.2596 13.2038 14.3637 14.57 16.2345C15.8849 18.035 16.6046 20.2995 15.4443 22.186C15.3354 22.363 15.5275 22.5719 15.7125 22.4772C17.1487 21.7425 18.7596 20.2688 18.9414 17.3362C19.0084 16.44 18.9079 15.1854 18.4053 13.6022C17.7591 11.5957 16.9647 10.6594 16.5051 10.2573C16.3676 10.137 16.1538 10.2436 16.1651 10.4259C16.299 12.591 15.4845 13.1404 15.0209 11.9022C14.8358 11.4077 14.7278 10.5523 14.7278 9.51062C14.7278 7.77639 14.2246 5.99116 13.1154 4.54047C12.8269 4.16322 12.4894 3.81071 12.1021 3.51009C11.9619 3.40124 11.7587 3.51065 11.7715 3.68768C11.8567 4.86333 11.7795 8.23268 8.82355 12.258C6.14334 15.9919 7.18191 18.8596 7.55044 19.6363C8.25504 21.1242 9.23784 21.998 10.1977 22.5083Z" fill="white"/>
<line x1="3.82035" y1="4.84644" x2="21.1537" y2="22.1798" stroke="white"/>
<circle cx="13" cy="13" r="12.5" stroke="white"/>
</svg>
