<svg width="39" height="39" viewBox="0 0 39 39" fill="none" xmlns="http://www.w3.org/2000/svg">
    <g filter="url(#filter0_d)">
        <path d="M24.5 18.5C24.5 22.0899 21.5899 25 18 25C14.4101 25 11.5 22.0899 11.5 18.5C11.5 14.9101 14.4101 12 18 12C21.5899 12 24.5 14.9101 24.5 18.5Z" fill="url(#paint0_linear)"/>
        <path d="M24 18.5C24 21.8137 21.3137 24.5 18 24.5C14.6863 24.5 12 21.8137 12 18.5C12 15.1863 14.6863 12.5 18 12.5C21.3137 12.5 24 15.1863 24 18.5Z" stroke="#A39999"/>
    </g>
    <g filter="url(#filter1_d)">
        <path d="M18.5 0L23.6962 9H13.3038L18.5 0Z" fill="url(#paint1_linear)"/>
        <path d="M14.1699 8.5L18.5 1L22.8301 8.5H14.1699Z" stroke="#A39999"/>
    </g>
    <g filter="url(#filter2_d)">
        <path d="M18.5 37L13.3038 28L23.6962 28L18.5 37Z" fill="url(#paint2_linear)"/>
        <path d="M22.8301 28.5L18.5 36L14.1699 28.5L22.8301 28.5Z" stroke="#A39999"/>
    </g>
    <g filter="url(#filter3_d)">
        <path d="M37 18.5L28 23.6962L28 13.3038L37 18.5Z" fill="url(#paint3_linear)"/>
        <path d="M28.5 14.1699L36 18.5L28.5 22.8301L28.5 14.1699Z" stroke="#A39999"/>
    </g>
    <g filter="url(#filter4_d)">
        <path d="M7.86805e-07 18.5L9 13.3038L9 23.6962L7.86805e-07 18.5Z" fill="url(#paint4_linear)"/>
        <path d="M8.5 22.8301L1 18.5L8.5 14.1699L8.5 22.8301Z" stroke="#A39999"/>
    </g>
    <defs>
        <filter id="filter0_d" x="11.5" y="12" width="15" height="15" filterUnits="userSpaceOnUse" color-interpolation-filters="sRGB">
            <feFlood flood-opacity="0" result="BackgroundImageFix"/>
            <feColorMatrix in="SourceAlpha" type="matrix" values="0 0 0 0 0 0 0 0 0 0 0 0 0 0 0 0 0 0 127 0"/>
            <feOffset dx="1" dy="1"/>
            <feGaussianBlur stdDeviation="0.5"/>
            <feColorMatrix type="matrix" values="0 0 0 0 0 0 0 0 0 0 0 0 0 0 0 0 0 0 0.1 0"/>
            <feBlend mode="normal" in2="BackgroundImageFix" result="effect1_dropShadow"/>
            <feBlend mode="normal" in="SourceGraphic" in2="effect1_dropShadow" result="shape"/>
        </filter>
        <filter id="filter1_d" x="13.3037" y="0" width="12.3923" height="11" filterUnits="userSpaceOnUse" color-interpolation-filters="sRGB">
            <feFlood flood-opacity="0" result="BackgroundImageFix"/>
            <feColorMatrix in="SourceAlpha" type="matrix" values="0 0 0 0 0 0 0 0 0 0 0 0 0 0 0 0 0 0 127 0"/>
            <feOffset dx="1" dy="1"/>
            <feGaussianBlur stdDeviation="0.5"/>
            <feColorMatrix type="matrix" values="0 0 0 0 0 0 0 0 0 0 0 0 0 0 0 0 0 0 0.1 0"/>
            <feBlend mode="normal" in2="BackgroundImageFix" result="effect1_dropShadow"/>
            <feBlend mode="normal" in="SourceGraphic" in2="effect1_dropShadow" result="shape"/>
        </filter>
        <filter id="filter2_d" x="13.3037" y="28" width="12.3923" height="11" filterUnits="userSpaceOnUse" color-interpolation-filters="sRGB">
            <feFlood flood-opacity="0" result="BackgroundImageFix"/>
            <feColorMatrix in="SourceAlpha" type="matrix" values="0 0 0 0 0 0 0 0 0 0 0 0 0 0 0 0 0 0 127 0"/>
            <feOffset dx="1" dy="1"/>
            <feGaussianBlur stdDeviation="0.5"/>
            <feColorMatrix type="matrix" values="0 0 0 0 0 0 0 0 0 0 0 0 0 0 0 0 0 0 0.1 0"/>
            <feBlend mode="normal" in2="BackgroundImageFix" result="effect1_dropShadow"/>
            <feBlend mode="normal" in="SourceGraphic" in2="effect1_dropShadow" result="shape"/>
        </filter>
        <filter id="filter3_d" x="28" y="13.3038" width="11" height="12.3923" filterUnits="userSpaceOnUse" color-interpolation-filters="sRGB">
            <feFlood flood-opacity="0" result="BackgroundImageFix"/>
            <feColorMatrix in="SourceAlpha" type="matrix" values="0 0 0 0 0 0 0 0 0 0 0 0 0 0 0 0 0 0 127 0"/>
            <feOffset dx="1" dy="1"/>
            <feGaussianBlur stdDeviation="0.5"/>
            <feColorMatrix type="matrix" values="0 0 0 0 0 0 0 0 0 0 0 0 0 0 0 0 0 0 0.1 0"/>
            <feBlend mode="normal" in2="BackgroundImageFix" result="effect1_dropShadow"/>
            <feBlend mode="normal" in="SourceGraphic" in2="effect1_dropShadow" result="shape"/>
        </filter>
        <filter id="filter4_d" x="0" y="13.3039" width="11" height="12.3923" filterUnits="userSpaceOnUse" color-interpolation-filters="sRGB">
            <feFlood flood-opacity="0" result="BackgroundImageFix"/>
            <feColorMatrix in="SourceAlpha" type="matrix" values="0 0 0 0 0 0 0 0 0 0 0 0 0 0 0 0 0 0 127 0"/>
            <feOffset dx="1" dy="1"/>
            <feGaussianBlur stdDeviation="0.5"/>
            <feColorMatrix type="matrix" values="0 0 0 0 0 0 0 0 0 0 0 0 0 0 0 0 0 0 0.1 0"/>
            <feBlend mode="normal" in2="BackgroundImageFix" result="effect1_dropShadow"/>
            <feBlend mode="normal" in="SourceGraphic" in2="effect1_dropShadow" result="shape"/>
        </filter>
        <linearGradient id="paint0_linear" x1="14.6087" y1="14.9068" x2="23.087" y2="26.4938" gradientUnits="userSpaceOnUse">
            <stop stop-color="#DDDDDD"/>
            <stop offset="1" stop-color="white"/>
        </linearGradient>
        <linearGradient id="paint1_linear" x1="15.3696" y1="2.68323" x2="23.1957" y2="13.3789" gradientUnits="userSpaceOnUse">
            <stop stop-color="#DDDDDD"/>
            <stop offset="1" stop-color="white"/>
        </linearGradient>
        <linearGradient id="paint2_linear" x1="21.6304" y1="34.3168" x2="13.8043" y2="23.6211" gradientUnits="userSpaceOnUse">
            <stop stop-color="#DDDDDD"/>
            <stop offset="1" stop-color="white"/>
        </linearGradient>
        <linearGradient id="paint3_linear" x1="34.3168" y1="15.3696" x2="23.6211" y2="23.1957" gradientUnits="userSpaceOnUse">
            <stop stop-color="#DDDDDD"/>
            <stop offset="1" stop-color="white"/>
        </linearGradient>
        <linearGradient id="paint4_linear" x1="2.68323" y1="21.6304" x2="13.3789" y2="13.8043" gradientUnits="userSpaceOnUse">
            <stop stop-color="#DDDDDD"/>
            <stop offset="1" stop-color="white"/>
        </linearGradient>
    </defs>
</svg>
