<svg width="598" height="52" viewBox="0 0 598 52" fill="none" xmlns="http://www.w3.org/2000/svg">
    <path d="M11.0558 40.5327H3.78622V35.591H12.3178V32.5373H0V50.9863H12.2926V47.9072H3.78622V43.5104H11.0558V40.5327Z" fill="url(#paint0_linear)" fill-opacity="0.5"/>
    <path d="M22.2125 32.5373C22.0442 32.8667 21.9222 33.2764 21.8465 33.7663C20.963 32.778 19.8145 32.2838 18.401 32.2838C17.0632 32.2838 15.9526 32.6724 15.0691 33.4496C14.1941 34.2267 13.7566 35.2066 13.7566 36.3893C13.7566 37.8422 14.2909 38.9573 15.3594 39.7344C16.4364 40.5116 17.9887 40.9044 20.0165 40.9128H21.695V41.6984C21.695 42.332 21.5309 42.8388 21.2028 43.219C20.8831 43.5991 20.374 43.7892 19.6757 43.7892C19.0615 43.7892 18.5777 43.6413 18.2243 43.3457C17.8794 43.05 17.7069 42.6445 17.7069 42.1292H14.0595C14.0595 42.9233 14.3035 43.6582 14.7915 44.334C15.2795 45.0098 15.9694 45.5378 16.8613 45.9179C17.7531 46.3065 18.7544 46.5008 19.865 46.5008C21.5478 46.5008 22.8814 46.0742 23.8658 45.221C24.8586 44.3762 25.355 43.1852 25.355 41.6477V35.705C25.3634 34.4041 25.5443 33.42 25.8977 32.7527V32.5373H22.2125ZM19.1961 35.0841C19.7346 35.0841 20.231 35.2024 20.6854 35.4389C21.1397 35.6839 21.4763 36.0091 21.695 36.4146V38.7714H20.332C18.5062 38.7714 17.5344 38.1379 17.4166 36.8708L17.404 36.6553C17.404 36.1992 17.5638 35.8233 17.8836 35.5276C18.2033 35.232 18.6408 35.0841 19.1961 35.0841Z" fill="url(#paint1_linear)" fill-opacity="0.5"/>
    <path d="M35.5526 36.3259C35.5526 36.7736 35.3296 37.1242 34.8837 37.3776C34.4462 37.6395 33.7394 37.8718 32.7634 38.0745C29.5157 38.7587 27.8918 40.1441 27.8918 42.2306C27.8918 43.447 28.3924 44.4607 29.3937 45.2717C30.4033 46.0911 31.7201 46.5008 33.3439 46.5008C35.0772 46.5008 36.4613 46.0911 37.4962 45.2717C38.5395 44.4523 39.0611 43.3879 39.0611 42.0786H35.4137C35.4137 42.6023 35.2455 43.0331 34.9089 43.371C34.5724 43.7174 34.0465 43.8905 33.3313 43.8905C32.7171 43.8905 32.2417 43.7511 31.9052 43.4724C31.5686 43.1936 31.4004 42.8388 31.4004 42.408C31.4004 42.0025 31.5897 41.6731 31.9683 41.4197C32.3553 41.1747 33.0032 40.9593 33.9119 40.7734C34.8206 40.596 35.5862 40.3933 36.2088 40.1652C38.1356 39.4557 39.099 38.2266 39.099 36.478C39.099 35.2277 38.5647 34.2141 37.4962 33.4369C36.4276 32.6682 35.0477 32.2838 33.3566 32.2838C32.2123 32.2838 31.1942 32.4866 30.3023 32.892C29.4189 33.306 28.7248 33.8677 28.2199 34.5773C27.7151 35.2953 27.4627 36.0683 27.4627 36.8961H30.9208C30.9544 36.2456 31.1942 35.7473 31.6401 35.4009C32.0861 35.0546 32.6835 34.8814 33.4323 34.8814C34.1306 34.8814 34.6565 35.0123 35.0099 35.2742C35.3717 35.5445 35.5526 35.8951 35.5526 36.3259Z" fill="url(#paint2_linear)" fill-opacity="0.5"/>
    <path d="M46.5578 37.7197L49.082 46.2473H52.9944L47.5044 30.4085L47.2015 29.6863C46.3853 27.8954 45.0391 27 43.1629 27C42.6328 27 42.0943 27.0802 41.5474 27.2408V30.0157L42.1027 30.003C42.7927 30.003 43.3059 30.1086 43.6424 30.3198C43.9874 30.531 44.2567 30.8816 44.4502 31.3715L44.8793 32.4992L40.096 46.2473H44.0211L46.5578 37.7197Z" fill="url(#paint3_linear)" fill-opacity="0.5"/>
    <path d="M57.5883 39.7598V32.5373H55.1652V50.9863H61.9425C63.9534 50.9863 65.5268 50.471 66.6626 49.4404C67.8069 48.4099 68.3791 47.0456 68.3791 45.3477C68.3791 43.5569 67.8195 42.1757 66.7005 41.2043C65.5899 40.2413 63.9955 39.7598 61.9173 39.7598H57.5883ZM57.5883 41.7491H61.9425C63.2382 41.7491 64.231 42.0532 64.921 42.6614C65.6109 43.2781 65.9559 44.1651 65.9559 45.3224C65.9559 46.4205 65.6109 47.299 64.921 47.9579C64.231 48.6168 63.2845 48.9589 62.0813 48.9843H57.5883V41.7491Z" fill="url(#paint4_linear)" fill-opacity="0.5"/>
    <path d="M73.6419 32.5373H71.3071V52H73.6419V32.5373Z" fill="url(#paint5_linear)" fill-opacity="0.5"/>
    <path d="M85.8209 32.5373C85.6863 32.8076 85.5769 33.2891 85.4928 33.9818C84.4074 32.8498 83.1116 32.2838 81.6056 32.2838C80.2594 32.2838 79.1529 32.664 78.2863 33.4242C77.4281 34.1929 76.999 35.1644 76.999 36.3386C76.999 37.7662 77.5375 38.8728 78.6145 39.6584C79.6998 40.4524 81.2227 40.8495 83.1832 40.8495H85.4549V41.9265C85.4549 42.7459 85.2109 43.3963 84.7229 43.8779C84.2349 44.3678 83.5155 44.6128 82.5647 44.6128C81.7318 44.6128 81.0334 44.4016 80.4697 43.9792C79.906 43.5569 79.6241 43.0458 79.6241 42.446H77.2767C77.2767 43.1303 77.5165 43.7892 77.996 44.4227C78.484 45.0647 79.1403 45.5715 79.9649 45.9432C80.7978 46.3149 81.7107 46.5008 82.7036 46.5008C84.277 46.5008 85.5096 46.1037 86.4014 45.3097C87.2933 44.5241 87.7561 43.4386 87.7897 42.0532V35.743C87.7897 34.4844 87.9496 33.4834 88.2693 32.74V32.5373H85.8209ZM81.9463 34.3239C82.6783 34.3239 83.3725 34.5139 84.0288 34.8941C84.685 35.2742 85.1604 35.7684 85.4549 36.3766V39.1896H83.6249C80.7642 39.1896 79.3338 38.349 79.3338 36.668C79.3338 35.9331 79.5778 35.3587 80.0658 34.9448C80.5538 34.5308 81.1807 34.3239 81.9463 34.3239Z" fill="url(#paint6_linear)" fill-opacity="0.5"/>
    <path d="M93.6584 46.2473L93.7341 44.5241C94.7774 45.8419 96.1404 46.5008 97.8232 46.5008C100.709 46.5008 102.165 44.8662 102.19 41.5971V32.5373H99.8551V41.6097C99.8467 42.5981 99.6195 43.3288 99.1736 43.8018C98.7361 44.2749 98.0504 44.5114 97.1164 44.5114C96.3592 44.5114 95.6945 44.3087 95.1224 43.9032C94.5502 43.4977 94.1043 42.9655 93.7846 42.3066V32.5373H91.4497V46.2473H93.6584Z" fill="url(#paint7_linear)" fill-opacity="0.5"/>
    <path d="M145.34 38.3913C145.113 36.4399 144.394 34.9321 143.182 33.8677C141.979 32.8118 140.376 32.2838 138.374 32.2838C136.203 32.2838 134.461 33.0652 133.149 34.628C131.844 36.1907 131.192 38.2815 131.192 40.9002V42.6741C131.192 44.3889 131.495 45.8968 132.101 47.1977C132.715 48.4986 133.582 49.4954 134.701 50.188C135.82 50.8892 137.116 51.2397 138.588 51.2397C140.54 51.2397 142.105 50.6907 143.283 49.5925C144.461 48.5028 145.147 46.9907 145.34 45.0563H142.904C142.694 46.5261 142.236 47.5905 141.529 48.2494C140.83 48.9083 139.85 49.2377 138.588 49.2377C137.04 49.2377 135.824 48.6633 134.941 47.5144C134.066 46.3656 133.628 44.731 133.628 42.6107V40.8241C133.628 38.8221 134.045 37.2298 134.878 36.0471C135.711 34.8645 136.876 34.2732 138.374 34.2732C139.72 34.2732 140.75 34.5773 141.466 35.1855C142.189 35.8022 142.669 36.8708 142.904 38.3913H145.34Z" fill="url(#paint8_linear)" fill-opacity="0.5"/>
    <path d="M150.83 32.5373H148.495V52H150.83V32.5373Z" fill="url(#paint9_linear)" fill-opacity="0.5"/>
    <path d="M157.115 32.5373H154.781V46.2473H157.115V32.5373ZM154.591 49.8839C154.591 50.2641 154.705 50.5851 154.932 50.8469C155.168 51.1088 155.512 51.2397 155.967 51.2397C156.421 51.2397 156.766 51.1088 157.002 50.8469C157.237 50.5851 157.355 50.2641 157.355 49.8839C157.355 49.5038 157.237 49.187 157.002 48.9336C156.766 48.6802 156.421 48.5535 155.967 48.5535C155.512 48.5535 155.168 48.6802 154.932 48.9336C154.705 49.187 154.591 49.5038 154.591 49.8839Z" fill="url(#paint10_linear)" fill-opacity="0.5"/>
    <path d="M166.341 34.1972C167.174 34.1972 167.902 34.4506 168.524 34.9574C169.147 35.4643 169.492 36.0978 169.559 36.8581H171.768C171.726 36.0725 171.457 35.3249 170.96 34.6153C170.464 33.9057 169.799 33.3398 168.966 32.9174C168.142 32.495 167.267 32.2838 166.341 32.2838C164.482 32.2838 163.001 32.9047 161.899 34.1465C160.805 35.3967 160.258 37.1031 160.258 39.2656V39.6584C160.258 40.9931 160.502 42.1799 160.99 43.219C161.478 44.258 162.176 45.0647 163.085 45.6391C164.002 46.2135 165.083 46.5008 166.328 46.5008C167.86 46.5008 169.13 46.0404 170.14 45.1196C171.158 44.1989 171.701 43.0035 171.768 41.5337H169.559C169.492 42.4207 169.156 43.1472 168.55 43.7131C167.952 44.2875 167.212 44.5748 166.328 44.5748C165.142 44.5748 164.221 44.1439 163.565 43.2823C162.917 42.4291 162.593 41.1916 162.593 39.5697V39.1262C162.593 37.5465 162.917 36.3301 163.565 35.4769C164.212 34.6238 165.138 34.1972 166.341 34.1972Z" fill="url(#paint11_linear)" fill-opacity="0.5"/>
    <path d="M178.205 38.8855L176.741 37.3523V32.5373H174.406V52H176.741V40.2286L177.99 41.7364L182.243 46.2473H185.083L179.77 40.52L185.701 32.5373H182.963L178.205 38.8855Z" fill="url(#paint12_linear)" fill-opacity="0.5"/>
    <path d="M189.689 46.2473L189.753 44.7268C190.754 45.9094 192.104 46.5008 193.804 46.5008C195.714 46.5008 197.014 45.7658 197.704 44.296C198.158 44.9549 198.747 45.4871 199.47 45.8925C200.202 46.298 201.065 46.5008 202.058 46.5008C205.053 46.5008 206.576 44.9084 206.626 41.7238V32.5373H204.292V41.5844C204.292 42.5643 204.069 43.295 203.623 43.7765C203.177 44.2664 202.428 44.5114 201.376 44.5114C200.51 44.5114 199.79 44.2495 199.218 43.7258C198.646 43.2105 198.314 42.5136 198.221 41.6351V32.5373H195.874V41.521C195.874 43.5146 194.902 44.5114 192.958 44.5114C191.427 44.5114 190.379 43.8567 189.816 42.5474V32.5373H187.481V46.2473H189.689Z" fill="url(#paint13_linear)" fill-opacity="0.5"/>
    <path d="M218.591 32.5373C218.456 32.8076 218.347 33.2891 218.263 33.9818C217.177 32.8498 215.882 32.2838 214.376 32.2838C213.029 32.2838 211.923 32.664 211.056 33.4242C210.198 34.1929 209.769 35.1644 209.769 36.3386C209.769 37.7662 210.307 38.8728 211.384 39.6584C212.47 40.4524 213.993 40.8495 215.953 40.8495H218.225V41.9265C218.225 42.7459 217.981 43.3963 217.493 43.8779C217.005 44.3678 216.285 44.6128 215.335 44.6128C214.502 44.6128 213.803 44.4016 213.24 43.9792C212.676 43.5569 212.394 43.0458 212.394 42.446H210.047C210.047 43.1303 210.286 43.7892 210.766 44.4227C211.254 45.0647 211.91 45.5715 212.735 45.9432C213.568 46.3149 214.481 46.5008 215.474 46.5008C217.047 46.5008 218.28 46.1037 219.171 45.3097C220.063 44.5241 220.526 43.4386 220.56 42.0532V35.743C220.56 34.4844 220.72 33.4834 221.039 32.74V32.5373H218.591ZM214.716 34.3239C215.448 34.3239 216.142 34.5139 216.799 34.8941C217.455 35.2742 217.93 35.7684 218.225 36.3766V39.1896H216.395C213.534 39.1896 212.104 38.349 212.104 36.668C212.104 35.9331 212.348 35.3587 212.836 34.9448C213.324 34.5308 213.951 34.3239 214.716 34.3239Z" fill="url(#paint14_linear)" fill-opacity="0.5"/>
    <path d="M227.388 49.5672V46.2473H229.937V44.4354H227.388V35.9331C227.388 35.384 227.501 34.9701 227.728 34.6913C227.955 34.421 228.342 34.2859 228.889 34.2859C229.159 34.2859 229.529 34.3365 230 34.4379V32.5373C229.386 32.3683 228.788 32.2838 228.208 32.2838C227.165 32.2838 226.378 32.6006 225.848 33.2342C225.318 33.8677 225.053 34.7674 225.053 35.9331V44.4354H222.566V46.2473H225.053V49.5672H227.388Z" fill="url(#paint15_linear)" fill-opacity="0.5"/>
    <path d="M110.648 46.3489H108.301V41H107.343V46.3489H105V47H110.648V46.3489Z" fill="url(#paint16_linear)" fill-opacity="0.5"/>
    <path d="M112.976 47L115.363 42.1044L117.751 47H119V41H118.037V43.3365L118.127 45.8585L115.729 41H114.992L112.599 45.8462L112.695 43.3365V41H111.732V47H112.976Z" fill="url(#paint17_linear)" fill-opacity="0.5"/>
    <path d="M11.0558 13.4673H3.78622V18.409H12.3178V21.4627H0V3.01368H12.2926V6.09275H3.78622V10.4896H11.0558V13.4673Z" fill="#252121"/>
    <path d="M22.2125 21.4627C22.0442 21.1333 21.9222 20.7236 21.8465 20.2337C20.963 21.222 19.8145 21.7162 18.401 21.7162C17.0632 21.7162 15.9526 21.3276 15.0691 20.5504C14.1941 19.7733 13.7566 18.7934 13.7566 17.6107C13.7566 16.1578 14.2909 15.0427 15.3594 14.2656C16.4364 13.4884 17.9887 13.0956 20.0165 13.0872H21.695V12.3016C21.695 11.668 21.5309 11.1612 21.2028 10.781C20.8831 10.4009 20.3741 10.2108 19.6757 10.2108C19.0615 10.2108 18.5777 10.3587 18.2243 10.6543C17.8794 10.95 17.7069 11.3555 17.7069 11.8708H14.0595C14.0595 11.0767 14.3035 10.3418 14.7915 9.66599C15.2795 8.9902 15.9694 8.46224 16.8613 8.08211C17.7531 7.69353 18.7544 7.49924 19.865 7.49924C21.5478 7.49924 22.8814 7.92583 23.8658 8.77902C24.8586 9.62375 25.355 10.8148 25.355 12.3523V18.295C25.3634 19.5959 25.5443 20.58 25.8977 21.2473V21.4627H22.2125ZM19.1961 18.9159C19.7346 18.9159 20.231 18.7976 20.6854 18.5611C21.1397 18.3161 21.4763 17.9909 21.695 17.5854V15.2286H20.332C18.5062 15.2286 17.5344 15.8621 17.4166 17.1292L17.404 17.3447C17.404 17.8008 17.5638 18.1767 17.8836 18.4724C18.2033 18.768 18.6408 18.9159 19.1961 18.9159Z" fill="#252121"/>
    <path d="M35.5526 17.6741C35.5526 17.2264 35.3296 16.8758 34.8837 16.6224C34.4462 16.3605 33.7394 16.1282 32.7634 15.9255C29.5157 15.2413 27.8918 13.8559 27.8918 11.7694C27.8918 10.553 28.3924 9.53928 29.3937 8.72833C30.4033 7.90894 31.7201 7.49924 33.3439 7.49924C35.0772 7.49924 36.4613 7.90894 37.4962 8.72833C38.5395 9.54773 39.0611 10.6121 39.0611 11.9214H35.4137C35.4137 11.3977 35.2455 10.9669 34.9089 10.629C34.5724 10.2826 34.0465 10.1095 33.3313 10.1095C32.7171 10.1095 32.2417 10.2489 31.9052 10.5276C31.5686 10.8064 31.4004 11.1612 31.4004 11.592C31.4004 11.9975 31.5897 12.3269 31.9683 12.5803C32.3553 12.8253 33.0032 13.0407 33.9119 13.2266C34.8206 13.404 35.5862 13.6067 36.2088 13.8348C38.1356 14.5443 39.099 15.7734 39.099 17.522C39.099 18.7723 38.5647 19.7859 37.4962 20.5631C36.4276 21.3318 35.0477 21.7162 33.3566 21.7162C32.2123 21.7162 31.1942 21.5134 30.3023 21.108C29.4189 20.694 28.7248 20.1323 28.2199 19.4227C27.7151 18.7047 27.4627 17.9317 27.4627 17.1039H30.9208C30.9544 17.7544 31.1942 18.2527 31.6401 18.5991C32.0861 18.9454 32.6835 19.1186 33.4323 19.1186C34.1306 19.1186 34.6565 18.9877 35.0099 18.7258C35.3717 18.4555 35.5526 18.1049 35.5526 17.6741Z" fill="#252121"/>
    <path d="M46.5578 16.2803L49.082 7.75266H52.9944L47.5044 23.5915L47.2015 24.3137C46.3854 26.1046 45.0391 27 43.1629 27C42.6328 27 42.0943 26.9198 41.5474 26.7593V23.9843L42.1027 23.997C42.7927 23.997 43.3059 23.8914 43.6425 23.6802C43.9874 23.469 44.2567 23.1184 44.4502 22.6285L44.8793 21.5008L40.096 7.75266H44.0211L46.5578 16.2803Z" fill="#252121"/>
    <path d="M57.5883 14.2402V21.4627H55.1652V3.01368H61.9425C63.9534 3.01368 65.5268 3.52897 66.6626 4.55955C67.8069 5.59013 68.3791 6.95438 68.3791 8.65231C68.3791 10.4431 67.8195 11.8243 66.7005 12.7957C65.5899 13.7587 63.9955 14.2402 61.9173 14.2402H57.5883ZM57.5883 12.2509H61.9425C63.2382 12.2509 64.2311 11.9468 64.921 11.3386C65.6109 10.7219 65.9559 9.83494 65.9559 8.67765C65.9559 7.57949 65.6109 6.70096 64.921 6.04207C64.2311 5.38317 63.2845 5.04105 62.0813 5.01571H57.5883V12.2509Z" fill="#252121"/>
    <path d="M73.6419 21.4627H71.3071V2H73.6419V21.4627Z" fill="#252121"/>
    <path d="M85.8209 21.4627C85.6863 21.1924 85.5769 20.7109 85.4928 20.0182C84.4074 21.1502 83.1116 21.7162 81.6056 21.7162C80.2594 21.7162 79.153 21.336 78.2863 20.5758C77.4281 19.8071 76.999 18.8356 76.999 17.6614C76.999 16.2338 77.5375 15.1272 78.6145 14.3416C79.6999 13.5476 81.2227 13.1505 83.1832 13.1505H85.4549V12.0735C85.4549 11.2541 85.2109 10.6036 84.7229 10.1221C84.2349 9.6322 83.5155 9.38723 82.5648 9.38723C81.7318 9.38723 81.0334 9.59841 80.4697 10.0208C79.906 10.4431 79.6241 10.9542 79.6241 11.554H77.2767C77.2767 10.8697 77.5165 10.2108 77.9961 9.57729C78.4841 8.93529 79.1403 8.42845 79.9649 8.05677C80.7979 7.68508 81.7108 7.49924 82.7036 7.49924C84.277 7.49924 85.5096 7.89627 86.4015 8.69032C87.2933 9.47593 87.7561 10.5614 87.7897 11.9468V18.257C87.7897 19.5156 87.9496 20.5166 88.2693 21.26V21.4627H85.8209ZM81.9463 19.6761C82.6783 19.6761 83.3725 19.4861 84.0288 19.1059C84.685 18.7258 85.1604 18.2316 85.4549 17.6234V14.8104H83.6249C80.7642 14.8104 79.3338 15.651 79.3338 17.332C79.3338 18.0669 79.5779 18.6413 80.0658 19.0552C80.5538 19.4692 81.1807 19.6761 81.9463 19.6761Z" fill="#252121"/>
    <path d="M93.6584 7.75266L93.7341 9.47593C94.7774 8.15813 96.1404 7.49924 97.8232 7.49924C100.709 7.49924 102.165 9.13381 102.19 12.4029V21.4627H99.8551V12.3903C99.8467 11.4019 99.6196 10.6712 99.1736 10.1982C98.7361 9.72512 98.0504 9.4886 97.1164 9.4886C96.3592 9.4886 95.6945 9.69133 95.1224 10.0968C94.5502 10.5023 94.1043 11.0345 93.7846 11.6934V21.4627H91.4497V7.75266H93.6584Z" fill="#252121"/>
    <path d="M145.34 15.6087C145.113 17.5601 144.394 19.0679 143.182 20.1323C141.979 21.1882 140.376 21.7162 138.374 21.7162C136.203 21.7162 134.461 20.9348 133.149 19.372C131.844 17.8093 131.192 15.7185 131.192 13.0998V11.3259C131.192 9.61108 131.495 8.10323 132.101 6.80233C132.715 5.50144 133.582 4.50465 134.701 3.81196C135.82 3.11083 137.116 2.76026 138.588 2.76026C140.54 2.76026 142.105 3.30934 143.283 4.4075C144.461 5.49721 145.147 7.00929 145.34 8.94374H142.904C142.694 7.4739 142.236 6.40953 141.529 5.75063C140.83 5.09174 139.85 4.76229 138.588 4.76229C137.04 4.76229 135.824 5.33671 134.941 6.48556C134.066 7.6344 133.628 9.26896 133.628 11.3893V13.1759C133.628 15.1779 134.045 16.7702 134.878 17.9529C135.711 19.1355 136.876 19.7268 138.374 19.7268C139.72 19.7268 140.75 19.4227 141.466 18.8145C142.189 18.1978 142.669 17.1292 142.904 15.6087H145.34Z" fill="#252121"/>
    <path d="M150.83 21.4627H148.495V2H150.83V21.4627Z" fill="#252121"/>
    <path d="M157.115 21.4627H154.781V7.75266H157.115V21.4627ZM154.591 4.11607C154.591 3.73594 154.705 3.41493 154.932 3.15307C155.168 2.8912 155.513 2.76026 155.967 2.76026C156.421 2.76026 156.766 2.8912 157.002 3.15307C157.237 3.41493 157.355 3.73594 157.355 4.11607C157.355 4.4962 157.237 4.81298 157.002 5.0664C156.766 5.31982 156.421 5.44653 155.967 5.44653C155.513 5.44653 155.168 5.31982 154.932 5.0664C154.705 4.81298 154.591 4.4962 154.591 4.11607Z" fill="#252121"/>
    <path d="M166.341 19.8028C167.174 19.8028 167.902 19.5494 168.524 19.0426C169.147 18.5357 169.492 17.9022 169.559 17.1419H171.768C171.726 17.9275 171.457 18.6751 170.96 19.3847C170.464 20.0943 169.799 20.6602 168.966 21.0826C168.142 21.505 167.267 21.7162 166.341 21.7162C164.482 21.7162 163.001 21.0953 161.899 19.8535C160.805 18.6033 160.258 16.8969 160.258 14.7344V14.3416C160.258 13.0069 160.502 11.8201 160.99 10.781C161.478 9.74202 162.176 8.93529 163.085 8.36087C164.002 7.78645 165.083 7.49924 166.328 7.49924C167.86 7.49924 169.13 7.95962 170.14 8.88039C171.158 9.80115 171.701 10.9965 171.768 12.4663H169.559C169.492 11.5793 169.156 10.8528 168.55 10.2869C167.952 9.71245 167.212 9.42524 166.328 9.42524C165.142 9.42524 164.221 9.85606 163.565 10.7177C162.917 11.5709 162.593 12.8084 162.593 14.4303V14.8738C162.593 16.4535 162.917 17.6699 163.565 18.5231C164.212 19.3762 165.138 19.8028 166.341 19.8028Z" fill="#252121"/>
    <path d="M178.205 15.1145L176.741 16.6477V21.4627H174.406V2H176.741V13.7714L177.99 12.2636L182.243 7.75266H185.083L179.77 13.48L185.701 21.4627H182.963L178.205 15.1145Z" fill="#252121"/>
    <path d="M189.689 7.75266L189.753 9.27319C190.754 8.09056 192.104 7.49924 193.804 7.49924C195.714 7.49924 197.014 8.23416 197.704 9.704C198.158 9.04511 198.747 8.51292 199.47 8.10745C200.202 7.70198 201.065 7.49924 202.058 7.49924C205.053 7.49924 206.576 9.09157 206.626 12.2762V21.4627H204.292V12.4156C204.292 11.4357 204.069 10.705 203.623 10.2235C203.177 9.73357 202.428 9.4886 201.376 9.4886C200.51 9.4886 199.79 9.75046 199.218 10.2742C198.646 10.7895 198.314 11.4864 198.221 12.3649V21.4627H195.874V12.479C195.874 10.4854 194.902 9.4886 192.958 9.4886C191.427 9.4886 190.379 10.1433 189.816 11.4526V21.4627H187.481V7.75266H189.689Z" fill="#252121"/>
    <path d="M218.591 21.4627C218.456 21.1924 218.347 20.7109 218.263 20.0182C217.177 21.1502 215.882 21.7162 214.376 21.7162C213.029 21.7162 211.923 21.336 211.056 20.5758C210.198 19.8071 209.769 18.8356 209.769 17.6614C209.769 16.2338 210.307 15.1272 211.384 14.3416C212.47 13.5476 213.993 13.1505 215.953 13.1505H218.225V12.0735C218.225 11.2541 217.981 10.6036 217.493 10.1221C217.005 9.6322 216.285 9.38723 215.335 9.38723C214.502 9.38723 213.803 9.59841 213.24 10.0208C212.676 10.4431 212.394 10.9542 212.394 11.554H210.047C210.047 10.8697 210.286 10.2108 210.766 9.57729C211.254 8.93529 211.91 8.42845 212.735 8.05677C213.568 7.68508 214.481 7.49924 215.474 7.49924C217.047 7.49924 218.28 7.89627 219.171 8.69032C220.063 9.47593 220.526 10.5614 220.56 11.9468V18.257C220.56 19.5156 220.72 20.5166 221.039 21.26V21.4627H218.591ZM214.716 19.6761C215.448 19.6761 216.142 19.4861 216.799 19.1059C217.455 18.7258 217.93 18.2316 218.225 17.6234V14.8104H216.395C213.534 14.8104 212.104 15.651 212.104 17.332C212.104 18.0669 212.348 18.6413 212.836 19.0552C213.324 19.4692 213.951 19.6761 214.716 19.6761Z" fill="#252121"/>
    <path d="M227.388 4.43284V7.75266H229.937V9.56462H227.388V18.0669C227.388 18.616 227.501 19.0299 227.728 19.3087C227.955 19.579 228.342 19.7141 228.889 19.7141C229.159 19.7141 229.529 19.6635 230 19.5621V21.4627C229.386 21.6317 228.788 21.7162 228.208 21.7162C227.165 21.7162 226.378 21.3994 225.848 20.7658C225.318 20.1323 225.053 19.2326 225.053 18.0669V9.56462H222.566V7.75266H225.053V4.43284H227.388Z" fill="#252121"/>
    <path d="M111.245 3.75962H109.065V10H108.175V3.75962H106V3H111.245V3.75962Z" fill="#252121"/>
    <path d="M113.406 3L115.623 8.71154L117.84 3H119V10H118.106V7.27404L118.19 4.33173L115.963 10H115.278L113.057 4.34615L113.145 7.27404V10H112.251V3H113.406Z" fill="#252121"/>
    <path d="M572.227 3.69218C575.505 1.18731 579.853 0.616573 583.875 0.895597C586.568 1.19999 589.233 2.1734 591.252 4.01243C594.038 5.92755 596.578 8.72413 597.063 12.1644C595.594 12.3927 594.102 12.3071 592.623 12.3102C589.421 12.3102 586.22 12.3229 583.022 12.3071C582.262 12.3451 581.383 12.2341 580.789 12.8112C579.294 14.0193 579.335 16.1405 578.342 17.6719C577.767 18.7183 576.566 19.8249 575.294 19.1812C573.412 18.2776 571.425 17.4088 569.294 17.4532C568.179 17.5324 567.131 18.1729 566.004 18.0112C565.553 14.5519 566.419 10.9627 568.374 8.06462C569.483 6.47609 570.585 4.7956 572.227 3.69218Z" fill="#FEC908"/>
    <path d="M510.408 13.3344C511.213 12.3705 512.549 12.1168 513.741 12.0059C516.268 11.879 518.795 11.9773 521.322 12.0471C521.379 12.5259 521.43 13.0078 521.469 13.4898C519.204 13.642 516.884 13.2773 514.654 13.7529C513.111 14.6407 513.926 16.781 513.753 18.2268C516.303 18.2839 518.852 18.1603 521.398 18.2998C521.398 18.75 521.382 19.2034 521.354 19.6537C518.82 19.7551 516.284 19.679 513.75 19.7044C513.763 21.0837 513.619 22.4788 513.843 23.8485C513.996 24.6381 514.916 24.8473 515.603 24.9139C517.536 24.9805 519.475 24.8854 521.411 24.9646C521.424 25.4307 521.43 25.8968 521.434 26.3661C518.974 26.6451 516.488 26.531 514.015 26.5246C512.319 26.4898 510.134 25.8207 509.836 23.8929C509.61 21.5815 509.792 19.2478 509.731 16.9268C509.76 15.7188 509.59 14.3459 510.408 13.3344Z" fill="#040407"/>
    <path d="M492.441 12.1168C493.777 12.0725 495.112 12.082 496.444 12.1042C497.7 15.722 498.869 19.3651 500.083 22.9956C501.531 19.4444 502.575 15.7346 503.853 12.1168C505.201 12.0756 506.556 12.0471 507.904 12.139C506.665 16.2071 505.131 20.1832 503.812 24.2259C503.527 25.0978 503.16 26.1346 502.147 26.3661C500.93 26.6578 499.62 26.6039 498.39 26.42C497.151 26.2425 496.761 24.9456 496.419 23.9373C495.135 19.9866 493.569 16.1183 492.441 12.1168Z" fill="#040407"/>
    <path d="M524.649 12.2469C526.85 12.0186 529.07 12.0851 531.281 12.1105C533.198 12.1866 535.399 12.5005 536.635 14.1334C537.488 15.5317 537.472 17.523 536.342 18.7722C535.62 19.5839 534.556 19.9422 533.575 20.3386C535.032 22.3551 536.588 24.3083 537.945 26.3947C536.597 26.5881 535.223 26.5437 533.869 26.4803C532.124 24.6793 530.907 22.4281 529.294 20.5066C528.914 20.5193 528.533 20.5225 528.153 20.5129C527.91 22.4915 528.102 24.489 528.006 26.4771C526.696 26.5278 525.383 26.569 524.08 26.439C524.048 23.1764 524.045 19.9105 524.073 16.6447C525.342 16.2705 526.703 16.3434 527.984 16.6193C528.019 17.4247 528.054 18.2332 528.137 19.0354C529.489 19.0671 530.936 19.0988 532.156 18.4393C533.262 17.802 533.332 16.299 532.997 15.2147C532.428 13.9844 530.917 13.7498 529.7 13.7022C527.799 13.5405 525.895 13.9147 524 13.699C524.147 13.1886 523.853 12.2405 524.649 12.2469Z" fill="#040407"/>
    <path d="M540.242 12.2373C541.532 12.139 542.833 12.1454 544.123 12.231C544.2 16.9934 544.191 21.759 544.127 26.5215C542.82 26.5595 541.516 26.5595 540.213 26.5056C540.152 21.7527 540.098 16.9871 540.242 12.2373Z" fill="#040407"/>
    <path d="M550.578 15.1956C550.99 14.1334 551.192 12.7002 552.437 12.2754C553.747 11.9551 555.147 11.9678 556.469 12.2088C557.383 12.4244 557.814 13.328 558.064 14.1366C559.431 18.2585 560.99 22.3202 562.252 26.4739C560.923 26.4866 559.476 26.7783 558.22 26.3629C557.568 24.8537 557.166 23.2524 556.543 21.7337C555.166 21.7241 553.789 21.7305 552.412 21.7432C551.869 23.338 551.367 24.9519 550.779 26.531C549.447 26.5468 548.115 26.5817 546.789 26.4993C547.863 22.6785 549.351 18.9751 550.578 15.1956ZM554.447 15.5698C553.923 17.1393 553.3 18.6802 552.92 20.291C553.993 20.2878 555.064 20.2815 556.137 20.2878C555.584 18.7119 555.175 17.079 554.447 15.5698Z" fill="#040407"/>
    <path d="M580.596 16.0866C581.347 15.4144 582.436 15.6205 583.36 15.5761C588.174 15.6522 592.998 15.4493 597.81 15.6871C598.27 20.5668 596.062 25.5195 592.34 28.6966C589.548 31.1793 585.804 32.511 582.075 32.5744C576.222 32.6854 570.446 29.2927 567.788 24.1117C567.331 23.132 568.184 22.1902 568.989 21.7273C570.59 20.7983 572.558 21.2644 574.174 21.9081C575.095 22.2727 576.206 22.8783 577.13 22.1744C579.11 20.6683 578.769 17.71 580.596 16.0866Z" fill="#506168"/>
    <defs>
        <linearGradient id="paint0_linear" x1="116.481" y1="56.9306" x2="116.481" y2="32.5373" gradientUnits="userSpaceOnUse">
            <stop stop-color="white" stop-opacity="0"/>
            <stop offset="1" stop-color="#333333"/>
        </linearGradient>
        <linearGradient id="paint1_linear" x1="116.481" y1="56.9306" x2="116.481" y2="32.5373" gradientUnits="userSpaceOnUse">
            <stop stop-color="white" stop-opacity="0"/>
            <stop offset="1" stop-color="#333333"/>
        </linearGradient>
        <linearGradient id="paint2_linear" x1="116.481" y1="56.9306" x2="116.481" y2="32.5373" gradientUnits="userSpaceOnUse">
            <stop stop-color="white" stop-opacity="0"/>
            <stop offset="1" stop-color="#333333"/>
        </linearGradient>
        <linearGradient id="paint3_linear" x1="116.481" y1="56.9306" x2="116.481" y2="32.5373" gradientUnits="userSpaceOnUse">
            <stop stop-color="white" stop-opacity="0"/>
            <stop offset="1" stop-color="#333333"/>
        </linearGradient>
        <linearGradient id="paint4_linear" x1="116.481" y1="56.9306" x2="116.481" y2="32.5373" gradientUnits="userSpaceOnUse">
            <stop stop-color="white" stop-opacity="0"/>
            <stop offset="1" stop-color="#333333"/>
        </linearGradient>
        <linearGradient id="paint5_linear" x1="116.481" y1="56.9306" x2="116.481" y2="32.5373" gradientUnits="userSpaceOnUse">
            <stop stop-color="white" stop-opacity="0"/>
            <stop offset="1" stop-color="#333333"/>
        </linearGradient>
        <linearGradient id="paint6_linear" x1="116.481" y1="56.9306" x2="116.481" y2="32.5373" gradientUnits="userSpaceOnUse">
            <stop stop-color="white" stop-opacity="0"/>
            <stop offset="1" stop-color="#333333"/>
        </linearGradient>
        <linearGradient id="paint7_linear" x1="116.481" y1="56.9306" x2="116.481" y2="32.5373" gradientUnits="userSpaceOnUse">
            <stop stop-color="white" stop-opacity="0"/>
            <stop offset="1" stop-color="#333333"/>
        </linearGradient>
        <linearGradient id="paint8_linear" x1="116.481" y1="56.9306" x2="116.481" y2="32.5373" gradientUnits="userSpaceOnUse">
            <stop stop-color="white" stop-opacity="0"/>
            <stop offset="1" stop-color="#333333"/>
        </linearGradient>
        <linearGradient id="paint9_linear" x1="116.481" y1="56.9306" x2="116.481" y2="32.5373" gradientUnits="userSpaceOnUse">
            <stop stop-color="white" stop-opacity="0"/>
            <stop offset="1" stop-color="#333333"/>
        </linearGradient>
        <linearGradient id="paint10_linear" x1="116.481" y1="56.9306" x2="116.481" y2="32.5373" gradientUnits="userSpaceOnUse">
            <stop stop-color="white" stop-opacity="0"/>
            <stop offset="1" stop-color="#333333"/>
        </linearGradient>
        <linearGradient id="paint11_linear" x1="116.481" y1="56.9306" x2="116.481" y2="32.5373" gradientUnits="userSpaceOnUse">
            <stop stop-color="white" stop-opacity="0"/>
            <stop offset="1" stop-color="#333333"/>
        </linearGradient>
        <linearGradient id="paint12_linear" x1="116.481" y1="56.9306" x2="116.481" y2="32.5373" gradientUnits="userSpaceOnUse">
            <stop stop-color="white" stop-opacity="0"/>
            <stop offset="1" stop-color="#333333"/>
        </linearGradient>
        <linearGradient id="paint13_linear" x1="116.481" y1="56.9306" x2="116.481" y2="32.5373" gradientUnits="userSpaceOnUse">
            <stop stop-color="white" stop-opacity="0"/>
            <stop offset="1" stop-color="#333333"/>
        </linearGradient>
        <linearGradient id="paint14_linear" x1="116.481" y1="56.9306" x2="116.481" y2="32.5373" gradientUnits="userSpaceOnUse">
            <stop stop-color="white" stop-opacity="0"/>
            <stop offset="1" stop-color="#333333"/>
        </linearGradient>
        <linearGradient id="paint15_linear" x1="116.481" y1="56.9306" x2="116.481" y2="32.5373" gradientUnits="userSpaceOnUse">
            <stop stop-color="white" stop-opacity="0"/>
            <stop offset="1" stop-color="#333333"/>
        </linearGradient>
        <linearGradient id="paint16_linear" x1="112.09" y1="48.1833" x2="112.09" y2="42.3289" gradientUnits="userSpaceOnUse">
            <stop stop-color="white" stop-opacity="0"/>
            <stop offset="1" stop-color="#333333"/>
        </linearGradient>
        <linearGradient id="paint17_linear" x1="112.09" y1="48.1833" x2="112.09" y2="42.3289" gradientUnits="userSpaceOnUse">
            <stop stop-color="white" stop-opacity="0"/>
            <stop offset="1" stop-color="#333333"/>
        </linearGradient>
    </defs>
</svg>
